# xmcd
#
# Track frame offsets:
#	150
#	15203
#	28625
#	39722
#	59523
#	78303
#	92986
#	105256
#	124336
#	136821
#	155091
#
# Disc length: 2213 seconds
#
# Revision: 1
# Processed by: cddbd v1.5.2PL0 Copyright (c) Steve Scherf et al.
# Submitted via: audiograbber 1.83.01
#
DISCID=8608a30b
DTITLE=Jo' Buddy and Down Home King III - Everything's Gonna Be Alright!
DYEAR=2010
DGENRE=Blues
TTITLE0=Elevator Boogie
TTITLE1=I'll Be Satisfied
TTITLE2=Zydeco Ball
TTITLE3=You Changed My Life All Over
TTITLE4=Tina Mae
TTITLE5=Wonderin' Blues (Memphis Version)
TTITLE6=Crazy Maid and Bad Hostess Rag
TTITLE7=Without You (I Wouldn't Do)
TTITLE8=Radio Act Twist
TTITLE9=Sun's Shining So Bright
TTITLE10=Needed Winds
EXTD=
EXTT0=
EXTT1=
EXTT2=
EXTT3=
EXTT4=
EXTT5=
EXTT6=
EXTT7=
EXTT8=
EXTT9=
EXTT10=
PLAYORDER=
